<?xml version="1.0" encoding="UTF-8"?><svg id="Layer_1" xmlns="http://www.w3.org/2000/svg" viewBox="0 0 245.04 182.51"><path d="M168.76,0l-10.27,91.25h-1.66v-2.21C156.82,32.63,142.55,0,117.48,0,96.03,0,82.85,23.52,79.36,65.12h-1.92C73.84,23.52,60.35,0,39.07,0,13.8,0,0,32.63,0,89.04v2.77c0,56.78,13.39,90.7,38.93,90.7,21.66,0,34.76-23.89,38.42-65.12h2.1c3.59,41.23,16.46,65.12,37.89,65.12,17.31,0,29.15-15.27,35.08-42.44h1.44v42.44h4.57c6.6-14.95,16.31-22.97,28.83-22.97s22.19,8.02,28.89,22.97h4.79v-50.11L206.04,0h-37.28ZM52.27,148.76h-26.14V33.75h26.14v115ZM130.69,148.76h-26.14V33.75h26.14v115ZM187.36,131.33c-4.27,0-8.22.94-11.82,2.76l8.04-100.34h7.7l8.05,100.44c-3.66-1.89-7.65-2.87-11.97-2.87Z"/><polygon points="241.21 0 237.65 15.28 234 0 230.14 0 230.14 0 220.94 0 220.94 3.15 224.14 3.15 224.14 20.03 227.49 20.03 227.49 3.15 230.14 3.15 230.14 20.03 233.26 20.03 233.26 7.59 234.15 11.81 236.02 20.03 239.16 20.03 240.88 11.96 241.8 7.57 241.8 20.03 245.04 20.03 245.04 0 241.21 0"/></svg>